<svg xmlns="http://www.w3.org/2000/svg" viewBox="0 0 88 88" fill="none">
  <circle cx="44" cy="44" r="44" fill="#595959" />
  <g transform="translate(12, 12)">
    <path
      d="M31.7997 0C23.7997 0 17.3997 6.49999 17.3997 14.4C17.3997 17.7 18.5997 21 20.6997 23.6L21.9997 25.1L36.5997 43.1L37.8997 44.6C39.0997 46 39.6997 47.7 39.6997 49.6C39.6997 53.9 36.1997 57.4 31.8997 57.4C27.5997 57.4 24.0997 53.9 24.0997 49.6V48.5C21.9997 49.5 19.7997 50.1 17.4997 50.3C17.8997 57.9 24.1997 64 31.8997 64C39.8997 64 46.2997 57.5 46.2997 49.6C46.2997 46.3 45.0997 43 42.9997 40.4L41.7997 38.9L27.1997 20.9L25.8997 19.4C24.6997 18 24.0997 16.3 24.0997 14.5C24.0997 10.2 27.5997 6.7 31.8997 6.7C36.1997 6.7 39.6997 10.2 39.6997 14.5V15.4C41.6997 14.4 43.8997 13.8 46.2997 13.7C45.7997 6.1 39.4997 0 31.7997 0Z"
      fill="#fff"/>
    <path
      d="M16.0996 47.6996C20.0996 47.6996 24.1996 45.9996 26.7996 43.2996C28.0996 41.9996 29.3996 40.5996 30.4996 39.0996L26.1996 33.7996C24.8996 35.4996 23.5996 36.9996 22.0996 38.4996C20.8996 39.6996 18.4996 40.9996 15.8996 40.9996C10.8996 40.9996 6.79961 36.8996 6.79961 31.8996C6.79961 26.8996 10.8996 22.7996 15.8996 22.7996C16.4996 22.7996 16.9996 22.8996 17.4996 22.8996C16.2996 20.7996 15.4996 18.4996 15.1996 16.0996C6.79961 16.3996 0.0996094 23.3996 0.0996094 31.7996C0.0996094 40.3996 7.09961 47.4996 15.6996 47.5996H16.0996V47.6996Z"
      fill="#fff"/>
    <path
      d="M48.3995 16.1992H46.3995C42.4995 16.3992 39.4995 17.7992 36.6995 20.5992C35.3995 21.8992 34.0995 23.2992 32.9995 24.7992L37.2995 30.0992C38.5995 28.3992 39.8995 26.8992 41.3995 25.3992C43.1995 23.5992 44.8995 22.8992 47.5995 22.8992C52.5995 22.8992 56.6995 26.9992 56.6995 31.9992C56.6995 36.9992 52.5995 41.0992 47.5995 41.0992C47.0995 41.0992 46.4995 40.9992 45.8995 40.8992C47.1995 42.9992 47.8995 45.2992 48.1995 47.6992C56.5995 47.3992 63.2995 40.3992 63.2995 31.9992C63.4995 23.4992 56.7995 16.5992 48.3995 16.1992Z"
      fill="#fff"/>
  </g>
</svg>
